<mxfile host="app.diagrams.net" agent="Mozilla/5.0 (Windows NT 10.0; Win64; x64) AppleWebKit/537.36 (KHTML, like Gecko) Chrome/129.0.0.0 Safari/537.36" version="24.7.16">
  <diagram name="Trang-1" id="ID3lpAH-4mba1S9XkAyZ">
    <mxGraphModel dx="1218" dy="633" grid="1" gridSize="10" guides="1" tooltips="1" connect="1" arrows="1" fold="1" page="1" pageScale="1" pageWidth="827" pageHeight="1169" math="0" shadow="0">
      <root>
        <mxCell id="0" />
        <mxCell id="1" parent="0" />
        <mxCell id="q2cx1sVJ8lztpaXrzPLX-3" value="&lt;div style=&quot;text-align: left;&quot;&gt;&lt;font style=&quot;font-size: 11px;&quot; face=&quot;Roboto, sans-serif&quot; color=&quot;#555555&quot;&gt;&lt;span style=&quot;text-wrap: wrap; background-color: rgb(255, 255, 255);&quot;&gt;antiques&lt;/span&gt;&lt;/font&gt;&lt;/div&gt;" style="shape=table;startSize=30;container=1;collapsible=1;childLayout=tableLayout;fixedRows=1;rowLines=0;fontStyle=1;align=center;resizeLast=1;html=1;" vertex="1" parent="1">
          <mxGeometry x="20" y="300" width="160" height="230" as="geometry" />
        </mxCell>
        <mxCell id="q2cx1sVJ8lztpaXrzPLX-4" value="" style="shape=tableRow;horizontal=0;startSize=0;swimlaneHead=0;swimlaneBody=0;fillColor=none;collapsible=0;dropTarget=0;points=[[0,0.5],[1,0.5]];portConstraint=eastwest;top=0;left=0;right=0;bottom=1;" vertex="1" parent="q2cx1sVJ8lztpaXrzPLX-3">
          <mxGeometry y="30" width="160" height="30" as="geometry" />
        </mxCell>
        <mxCell id="q2cx1sVJ8lztpaXrzPLX-5" value="PK" style="shape=partialRectangle;connectable=0;fillColor=none;top=0;left=0;bottom=0;right=0;fontStyle=1;overflow=hidden;whiteSpace=wrap;html=1;" vertex="1" parent="q2cx1sVJ8lztpaXrzPLX-4">
          <mxGeometry width="30" height="30" as="geometry">
            <mxRectangle width="30" height="30" as="alternateBounds" />
          </mxGeometry>
        </mxCell>
        <mxCell id="q2cx1sVJ8lztpaXrzPLX-6" value="itemno" style="shape=partialRectangle;connectable=0;fillColor=none;top=0;left=0;bottom=0;right=0;align=left;spacingLeft=6;fontStyle=5;overflow=hidden;whiteSpace=wrap;html=1;" vertex="1" parent="q2cx1sVJ8lztpaXrzPLX-4">
          <mxGeometry x="30" width="130" height="30" as="geometry">
            <mxRectangle width="130" height="30" as="alternateBounds" />
          </mxGeometry>
        </mxCell>
        <mxCell id="q2cx1sVJ8lztpaXrzPLX-7" value="" style="shape=tableRow;horizontal=0;startSize=0;swimlaneHead=0;swimlaneBody=0;fillColor=none;collapsible=0;dropTarget=0;points=[[0,0.5],[1,0.5]];portConstraint=eastwest;top=0;left=0;right=0;bottom=0;" vertex="1" parent="q2cx1sVJ8lztpaXrzPLX-3">
          <mxGeometry y="60" width="160" height="30" as="geometry" />
        </mxCell>
        <mxCell id="q2cx1sVJ8lztpaXrzPLX-8" value="" style="shape=partialRectangle;connectable=0;fillColor=none;top=0;left=0;bottom=0;right=0;editable=1;overflow=hidden;whiteSpace=wrap;html=1;" vertex="1" parent="q2cx1sVJ8lztpaXrzPLX-7">
          <mxGeometry width="30" height="30" as="geometry">
            <mxRectangle width="30" height="30" as="alternateBounds" />
          </mxGeometry>
        </mxCell>
        <mxCell id="q2cx1sVJ8lztpaXrzPLX-9" value="des" style="shape=partialRectangle;connectable=0;fillColor=none;top=0;left=0;bottom=0;right=0;align=left;spacingLeft=6;overflow=hidden;whiteSpace=wrap;html=1;" vertex="1" parent="q2cx1sVJ8lztpaXrzPLX-7">
          <mxGeometry x="30" width="130" height="30" as="geometry">
            <mxRectangle width="130" height="30" as="alternateBounds" />
          </mxGeometry>
        </mxCell>
        <mxCell id="q2cx1sVJ8lztpaXrzPLX-10" value="" style="shape=tableRow;horizontal=0;startSize=0;swimlaneHead=0;swimlaneBody=0;fillColor=none;collapsible=0;dropTarget=0;points=[[0,0.5],[1,0.5]];portConstraint=eastwest;top=0;left=0;right=0;bottom=0;" vertex="1" parent="q2cx1sVJ8lztpaXrzPLX-3">
          <mxGeometry y="90" width="160" height="30" as="geometry" />
        </mxCell>
        <mxCell id="q2cx1sVJ8lztpaXrzPLX-11" value="" style="shape=partialRectangle;connectable=0;fillColor=none;top=0;left=0;bottom=0;right=0;editable=1;overflow=hidden;whiteSpace=wrap;html=1;" vertex="1" parent="q2cx1sVJ8lztpaXrzPLX-10">
          <mxGeometry width="30" height="30" as="geometry">
            <mxRectangle width="30" height="30" as="alternateBounds" />
          </mxGeometry>
        </mxCell>
        <mxCell id="q2cx1sVJ8lztpaXrzPLX-12" value="price" style="shape=partialRectangle;connectable=0;fillColor=none;top=0;left=0;bottom=0;right=0;align=left;spacingLeft=6;overflow=hidden;whiteSpace=wrap;html=1;" vertex="1" parent="q2cx1sVJ8lztpaXrzPLX-10">
          <mxGeometry x="30" width="130" height="30" as="geometry">
            <mxRectangle width="130" height="30" as="alternateBounds" />
          </mxGeometry>
        </mxCell>
        <mxCell id="q2cx1sVJ8lztpaXrzPLX-13" value="" style="shape=tableRow;horizontal=0;startSize=0;swimlaneHead=0;swimlaneBody=0;fillColor=none;collapsible=0;dropTarget=0;points=[[0,0.5],[1,0.5]];portConstraint=eastwest;top=0;left=0;right=0;bottom=0;" vertex="1" parent="q2cx1sVJ8lztpaXrzPLX-3">
          <mxGeometry y="120" width="160" height="30" as="geometry" />
        </mxCell>
        <mxCell id="q2cx1sVJ8lztpaXrzPLX-14" value="" style="shape=partialRectangle;connectable=0;fillColor=none;top=0;left=0;bottom=0;right=0;editable=1;overflow=hidden;whiteSpace=wrap;html=1;" vertex="1" parent="q2cx1sVJ8lztpaXrzPLX-13">
          <mxGeometry width="30" height="30" as="geometry">
            <mxRectangle width="30" height="30" as="alternateBounds" />
          </mxGeometry>
        </mxCell>
        <mxCell id="q2cx1sVJ8lztpaXrzPLX-15" value="condition" style="shape=partialRectangle;connectable=0;fillColor=none;top=0;left=0;bottom=0;right=0;align=left;spacingLeft=6;overflow=hidden;whiteSpace=wrap;html=1;" vertex="1" parent="q2cx1sVJ8lztpaXrzPLX-13">
          <mxGeometry x="30" width="130" height="30" as="geometry">
            <mxRectangle width="130" height="30" as="alternateBounds" />
          </mxGeometry>
        </mxCell>
        <mxCell id="q2cx1sVJ8lztpaXrzPLX-40" value="" style="shape=tableRow;horizontal=0;startSize=0;swimlaneHead=0;swimlaneBody=0;fillColor=none;collapsible=0;dropTarget=0;points=[[0,0.5],[1,0.5]];portConstraint=eastwest;top=0;left=0;right=0;bottom=0;" vertex="1" parent="q2cx1sVJ8lztpaXrzPLX-3">
          <mxGeometry y="150" width="160" height="30" as="geometry" />
        </mxCell>
        <mxCell id="q2cx1sVJ8lztpaXrzPLX-41" value="" style="shape=partialRectangle;connectable=0;fillColor=none;top=0;left=0;bottom=0;right=0;editable=1;overflow=hidden;whiteSpace=wrap;html=1;" vertex="1" parent="q2cx1sVJ8lztpaXrzPLX-40">
          <mxGeometry width="30" height="30" as="geometry">
            <mxRectangle width="30" height="30" as="alternateBounds" />
          </mxGeometry>
        </mxCell>
        <mxCell id="q2cx1sVJ8lztpaXrzPLX-42" value="comments" style="shape=partialRectangle;connectable=0;fillColor=none;top=0;left=0;bottom=0;right=0;align=left;spacingLeft=6;overflow=hidden;whiteSpace=wrap;html=1;" vertex="1" parent="q2cx1sVJ8lztpaXrzPLX-40">
          <mxGeometry x="30" width="130" height="30" as="geometry">
            <mxRectangle width="130" height="30" as="alternateBounds" />
          </mxGeometry>
        </mxCell>
        <mxCell id="q2cx1sVJ8lztpaXrzPLX-43" value="" style="shape=tableRow;horizontal=0;startSize=0;swimlaneHead=0;swimlaneBody=0;fillColor=none;collapsible=0;dropTarget=0;points=[[0,0.5],[1,0.5]];portConstraint=eastwest;top=0;left=0;right=0;bottom=0;" vertex="1" parent="q2cx1sVJ8lztpaXrzPLX-3">
          <mxGeometry y="180" width="160" height="30" as="geometry" />
        </mxCell>
        <mxCell id="q2cx1sVJ8lztpaXrzPLX-44" value="" style="shape=partialRectangle;connectable=0;fillColor=none;top=0;left=0;bottom=0;right=0;editable=1;overflow=hidden;whiteSpace=wrap;html=1;" vertex="1" parent="q2cx1sVJ8lztpaXrzPLX-43">
          <mxGeometry width="30" height="30" as="geometry">
            <mxRectangle width="30" height="30" as="alternateBounds" />
          </mxGeometry>
        </mxCell>
        <mxCell id="q2cx1sVJ8lztpaXrzPLX-45" value="" style="shape=partialRectangle;connectable=0;fillColor=none;top=0;left=0;bottom=0;right=0;align=left;spacingLeft=6;overflow=hidden;whiteSpace=wrap;html=1;" vertex="1" parent="q2cx1sVJ8lztpaXrzPLX-43">
          <mxGeometry x="30" width="130" height="30" as="geometry">
            <mxRectangle width="130" height="30" as="alternateBounds" />
          </mxGeometry>
        </mxCell>
        <mxCell id="q2cx1sVJ8lztpaXrzPLX-46" value="" style="shape=tableRow;horizontal=0;startSize=0;swimlaneHead=0;swimlaneBody=0;fillColor=none;collapsible=0;dropTarget=0;points=[[0,0.5],[1,0.5]];portConstraint=eastwest;top=0;left=0;right=0;bottom=0;" vertex="1" parent="q2cx1sVJ8lztpaXrzPLX-3">
          <mxGeometry y="210" width="160" height="20" as="geometry" />
        </mxCell>
        <mxCell id="q2cx1sVJ8lztpaXrzPLX-47" value="" style="shape=partialRectangle;connectable=0;fillColor=none;top=0;left=0;bottom=0;right=0;editable=1;overflow=hidden;whiteSpace=wrap;html=1;" vertex="1" parent="q2cx1sVJ8lztpaXrzPLX-46">
          <mxGeometry width="30" height="20" as="geometry">
            <mxRectangle width="30" height="20" as="alternateBounds" />
          </mxGeometry>
        </mxCell>
        <mxCell id="q2cx1sVJ8lztpaXrzPLX-48" value="" style="shape=partialRectangle;connectable=0;fillColor=none;top=0;left=0;bottom=0;right=0;align=left;spacingLeft=6;overflow=hidden;whiteSpace=wrap;html=1;" vertex="1" parent="q2cx1sVJ8lztpaXrzPLX-46">
          <mxGeometry x="30" width="130" height="20" as="geometry">
            <mxRectangle width="130" height="20" as="alternateBounds" />
          </mxGeometry>
        </mxCell>
        <mxCell id="q2cx1sVJ8lztpaXrzPLX-67" value="clients" style="shape=table;startSize=30;container=1;collapsible=1;childLayout=tableLayout;fixedRows=1;rowLines=0;fontStyle=1;align=center;resizeLast=1;html=1;" vertex="1" parent="1">
          <mxGeometry x="580" y="320" width="180" height="140" as="geometry" />
        </mxCell>
        <mxCell id="q2cx1sVJ8lztpaXrzPLX-68" value="" style="shape=tableRow;horizontal=0;startSize=0;swimlaneHead=0;swimlaneBody=0;fillColor=none;collapsible=0;dropTarget=0;points=[[0,0.5],[1,0.5]];portConstraint=eastwest;top=0;left=0;right=0;bottom=1;" vertex="1" parent="q2cx1sVJ8lztpaXrzPLX-67">
          <mxGeometry y="30" width="180" height="30" as="geometry" />
        </mxCell>
        <mxCell id="q2cx1sVJ8lztpaXrzPLX-69" value="PK" style="shape=partialRectangle;connectable=0;fillColor=none;top=0;left=0;bottom=0;right=0;fontStyle=1;overflow=hidden;whiteSpace=wrap;html=1;" vertex="1" parent="q2cx1sVJ8lztpaXrzPLX-68">
          <mxGeometry width="30" height="30" as="geometry">
            <mxRectangle width="30" height="30" as="alternateBounds" />
          </mxGeometry>
        </mxCell>
        <mxCell id="q2cx1sVJ8lztpaXrzPLX-70" value="clientno" style="shape=partialRectangle;connectable=0;fillColor=none;top=0;left=0;bottom=0;right=0;align=left;spacingLeft=6;fontStyle=5;overflow=hidden;whiteSpace=wrap;html=1;" vertex="1" parent="q2cx1sVJ8lztpaXrzPLX-68">
          <mxGeometry x="30" width="150" height="30" as="geometry">
            <mxRectangle width="150" height="30" as="alternateBounds" />
          </mxGeometry>
        </mxCell>
        <mxCell id="q2cx1sVJ8lztpaXrzPLX-71" value="" style="shape=tableRow;horizontal=0;startSize=0;swimlaneHead=0;swimlaneBody=0;fillColor=none;collapsible=0;dropTarget=0;points=[[0,0.5],[1,0.5]];portConstraint=eastwest;top=0;left=0;right=0;bottom=0;" vertex="1" parent="q2cx1sVJ8lztpaXrzPLX-67">
          <mxGeometry y="60" width="180" height="30" as="geometry" />
        </mxCell>
        <mxCell id="q2cx1sVJ8lztpaXrzPLX-72" value="" style="shape=partialRectangle;connectable=0;fillColor=none;top=0;left=0;bottom=0;right=0;editable=1;overflow=hidden;whiteSpace=wrap;html=1;" vertex="1" parent="q2cx1sVJ8lztpaXrzPLX-71">
          <mxGeometry width="30" height="30" as="geometry">
            <mxRectangle width="30" height="30" as="alternateBounds" />
          </mxGeometry>
        </mxCell>
        <mxCell id="q2cx1sVJ8lztpaXrzPLX-73" value="clientname" style="shape=partialRectangle;connectable=0;fillColor=none;top=0;left=0;bottom=0;right=0;align=left;spacingLeft=6;overflow=hidden;whiteSpace=wrap;html=1;" vertex="1" parent="q2cx1sVJ8lztpaXrzPLX-71">
          <mxGeometry x="30" width="150" height="30" as="geometry">
            <mxRectangle width="150" height="30" as="alternateBounds" />
          </mxGeometry>
        </mxCell>
        <mxCell id="q2cx1sVJ8lztpaXrzPLX-74" value="" style="shape=tableRow;horizontal=0;startSize=0;swimlaneHead=0;swimlaneBody=0;fillColor=none;collapsible=0;dropTarget=0;points=[[0,0.5],[1,0.5]];portConstraint=eastwest;top=0;left=0;right=0;bottom=0;" vertex="1" parent="q2cx1sVJ8lztpaXrzPLX-67">
          <mxGeometry y="90" width="180" height="30" as="geometry" />
        </mxCell>
        <mxCell id="q2cx1sVJ8lztpaXrzPLX-75" value="" style="shape=partialRectangle;connectable=0;fillColor=none;top=0;left=0;bottom=0;right=0;editable=1;overflow=hidden;whiteSpace=wrap;html=1;" vertex="1" parent="q2cx1sVJ8lztpaXrzPLX-74">
          <mxGeometry width="30" height="30" as="geometry">
            <mxRectangle width="30" height="30" as="alternateBounds" />
          </mxGeometry>
        </mxCell>
        <mxCell id="q2cx1sVJ8lztpaXrzPLX-76" value="clientaddress" style="shape=partialRectangle;connectable=0;fillColor=none;top=0;left=0;bottom=0;right=0;align=left;spacingLeft=6;overflow=hidden;whiteSpace=wrap;html=1;" vertex="1" parent="q2cx1sVJ8lztpaXrzPLX-74">
          <mxGeometry x="30" width="150" height="30" as="geometry">
            <mxRectangle width="150" height="30" as="alternateBounds" />
          </mxGeometry>
        </mxCell>
        <mxCell id="q2cx1sVJ8lztpaXrzPLX-77" value="" style="shape=tableRow;horizontal=0;startSize=0;swimlaneHead=0;swimlaneBody=0;fillColor=none;collapsible=0;dropTarget=0;points=[[0,0.5],[1,0.5]];portConstraint=eastwest;top=0;left=0;right=0;bottom=0;" vertex="1" parent="q2cx1sVJ8lztpaXrzPLX-67">
          <mxGeometry y="120" width="180" height="20" as="geometry" />
        </mxCell>
        <mxCell id="q2cx1sVJ8lztpaXrzPLX-78" value="" style="shape=partialRectangle;connectable=0;fillColor=none;top=0;left=0;bottom=0;right=0;editable=1;overflow=hidden;whiteSpace=wrap;html=1;" vertex="1" parent="q2cx1sVJ8lztpaXrzPLX-77">
          <mxGeometry width="30" height="20" as="geometry">
            <mxRectangle width="30" height="20" as="alternateBounds" />
          </mxGeometry>
        </mxCell>
        <mxCell id="q2cx1sVJ8lztpaXrzPLX-79" value="" style="shape=partialRectangle;connectable=0;fillColor=none;top=0;left=0;bottom=0;right=0;align=left;spacingLeft=6;overflow=hidden;whiteSpace=wrap;html=1;" vertex="1" parent="q2cx1sVJ8lztpaXrzPLX-77">
          <mxGeometry x="30" width="150" height="20" as="geometry">
            <mxRectangle width="150" height="20" as="alternateBounds" />
          </mxGeometry>
        </mxCell>
        <mxCell id="q2cx1sVJ8lztpaXrzPLX-82" value="sell" style="shape=table;startSize=30;container=1;collapsible=1;childLayout=tableLayout;fixedRows=1;rowLines=0;fontStyle=1;align=center;resizeLast=1;html=1;whiteSpace=wrap;" vertex="1" parent="1">
          <mxGeometry x="300" y="210" width="180" height="170" as="geometry" />
        </mxCell>
        <mxCell id="q2cx1sVJ8lztpaXrzPLX-83" value="" style="shape=tableRow;horizontal=0;startSize=0;swimlaneHead=0;swimlaneBody=0;fillColor=none;collapsible=0;dropTarget=0;points=[[0,0.5],[1,0.5]];portConstraint=eastwest;top=0;left=0;right=0;bottom=0;html=1;" vertex="1" parent="q2cx1sVJ8lztpaXrzPLX-82">
          <mxGeometry y="30" width="180" height="30" as="geometry" />
        </mxCell>
        <mxCell id="q2cx1sVJ8lztpaXrzPLX-84" value="PK,FK1" style="shape=partialRectangle;connectable=0;fillColor=none;top=0;left=0;bottom=0;right=0;fontStyle=1;overflow=hidden;html=1;whiteSpace=wrap;" vertex="1" parent="q2cx1sVJ8lztpaXrzPLX-83">
          <mxGeometry width="60" height="30" as="geometry">
            <mxRectangle width="60" height="30" as="alternateBounds" />
          </mxGeometry>
        </mxCell>
        <mxCell id="q2cx1sVJ8lztpaXrzPLX-85" value="itemno" style="shape=partialRectangle;connectable=0;fillColor=none;top=0;left=0;bottom=0;right=0;align=left;spacingLeft=6;fontStyle=5;overflow=hidden;html=1;whiteSpace=wrap;" vertex="1" parent="q2cx1sVJ8lztpaXrzPLX-83">
          <mxGeometry x="60" width="120" height="30" as="geometry">
            <mxRectangle width="120" height="30" as="alternateBounds" />
          </mxGeometry>
        </mxCell>
        <mxCell id="q2cx1sVJ8lztpaXrzPLX-86" value="" style="shape=tableRow;horizontal=0;startSize=0;swimlaneHead=0;swimlaneBody=0;fillColor=none;collapsible=0;dropTarget=0;points=[[0,0.5],[1,0.5]];portConstraint=eastwest;top=0;left=0;right=0;bottom=1;html=1;" vertex="1" parent="q2cx1sVJ8lztpaXrzPLX-82">
          <mxGeometry y="60" width="180" height="30" as="geometry" />
        </mxCell>
        <mxCell id="q2cx1sVJ8lztpaXrzPLX-87" value="PK,FK2" style="shape=partialRectangle;connectable=0;fillColor=none;top=0;left=0;bottom=0;right=0;fontStyle=1;overflow=hidden;html=1;whiteSpace=wrap;" vertex="1" parent="q2cx1sVJ8lztpaXrzPLX-86">
          <mxGeometry width="60" height="30" as="geometry">
            <mxRectangle width="60" height="30" as="alternateBounds" />
          </mxGeometry>
        </mxCell>
        <mxCell id="q2cx1sVJ8lztpaXrzPLX-88" value="clientno" style="shape=partialRectangle;connectable=0;fillColor=none;top=0;left=0;bottom=0;right=0;align=left;spacingLeft=6;fontStyle=5;overflow=hidden;html=1;whiteSpace=wrap;" vertex="1" parent="q2cx1sVJ8lztpaXrzPLX-86">
          <mxGeometry x="60" width="120" height="30" as="geometry">
            <mxRectangle width="120" height="30" as="alternateBounds" />
          </mxGeometry>
        </mxCell>
        <mxCell id="q2cx1sVJ8lztpaXrzPLX-89" value="" style="shape=tableRow;horizontal=0;startSize=0;swimlaneHead=0;swimlaneBody=0;fillColor=none;collapsible=0;dropTarget=0;points=[[0,0.5],[1,0.5]];portConstraint=eastwest;top=0;left=0;right=0;bottom=0;html=1;" vertex="1" parent="q2cx1sVJ8lztpaXrzPLX-82">
          <mxGeometry y="90" width="180" height="30" as="geometry" />
        </mxCell>
        <mxCell id="q2cx1sVJ8lztpaXrzPLX-90" value="" style="shape=partialRectangle;connectable=0;fillColor=none;top=0;left=0;bottom=0;right=0;editable=1;overflow=hidden;html=1;whiteSpace=wrap;" vertex="1" parent="q2cx1sVJ8lztpaXrzPLX-89">
          <mxGeometry width="60" height="30" as="geometry">
            <mxRectangle width="60" height="30" as="alternateBounds" />
          </mxGeometry>
        </mxCell>
        <mxCell id="q2cx1sVJ8lztpaXrzPLX-91" value="commission paid" style="shape=partialRectangle;connectable=0;fillColor=none;top=0;left=0;bottom=0;right=0;align=left;spacingLeft=6;overflow=hidden;html=1;whiteSpace=wrap;" vertex="1" parent="q2cx1sVJ8lztpaXrzPLX-89">
          <mxGeometry x="60" width="120" height="30" as="geometry">
            <mxRectangle width="120" height="30" as="alternateBounds" />
          </mxGeometry>
        </mxCell>
        <mxCell id="q2cx1sVJ8lztpaXrzPLX-92" value="" style="shape=tableRow;horizontal=0;startSize=0;swimlaneHead=0;swimlaneBody=0;fillColor=none;collapsible=0;dropTarget=0;points=[[0,0.5],[1,0.5]];portConstraint=eastwest;top=0;left=0;right=0;bottom=0;html=1;" vertex="1" parent="q2cx1sVJ8lztpaXrzPLX-82">
          <mxGeometry y="120" width="180" height="50" as="geometry" />
        </mxCell>
        <mxCell id="q2cx1sVJ8lztpaXrzPLX-93" value="" style="shape=partialRectangle;connectable=0;fillColor=none;top=0;left=0;bottom=0;right=0;editable=1;overflow=hidden;html=1;whiteSpace=wrap;" vertex="1" parent="q2cx1sVJ8lztpaXrzPLX-92">
          <mxGeometry width="60" height="50" as="geometry">
            <mxRectangle width="60" height="50" as="alternateBounds" />
          </mxGeometry>
        </mxCell>
        <mxCell id="q2cx1sVJ8lztpaXrzPLX-94" value="actual prize&lt;div&gt;sale tax&lt;/div&gt;" style="shape=partialRectangle;connectable=0;fillColor=none;top=0;left=0;bottom=0;right=0;align=left;spacingLeft=6;overflow=hidden;html=1;whiteSpace=wrap;" vertex="1" parent="q2cx1sVJ8lztpaXrzPLX-92">
          <mxGeometry x="60" width="120" height="50" as="geometry">
            <mxRectangle width="120" height="50" as="alternateBounds" />
          </mxGeometry>
        </mxCell>
        <mxCell id="q2cx1sVJ8lztpaXrzPLX-95" value="buy" style="shape=table;startSize=30;container=1;collapsible=1;childLayout=tableLayout;fixedRows=1;rowLines=0;fontStyle=1;align=center;resizeLast=1;html=1;whiteSpace=wrap;" vertex="1" parent="1">
          <mxGeometry x="300" y="400" width="180" height="150" as="geometry" />
        </mxCell>
        <mxCell id="q2cx1sVJ8lztpaXrzPLX-96" value="" style="shape=tableRow;horizontal=0;startSize=0;swimlaneHead=0;swimlaneBody=0;fillColor=none;collapsible=0;dropTarget=0;points=[[0,0.5],[1,0.5]];portConstraint=eastwest;top=0;left=0;right=0;bottom=0;html=1;" vertex="1" parent="q2cx1sVJ8lztpaXrzPLX-95">
          <mxGeometry y="30" width="180" height="30" as="geometry" />
        </mxCell>
        <mxCell id="q2cx1sVJ8lztpaXrzPLX-97" value="PK,FK1" style="shape=partialRectangle;connectable=0;fillColor=none;top=0;left=0;bottom=0;right=0;fontStyle=1;overflow=hidden;html=1;whiteSpace=wrap;" vertex="1" parent="q2cx1sVJ8lztpaXrzPLX-96">
          <mxGeometry width="60" height="30" as="geometry">
            <mxRectangle width="60" height="30" as="alternateBounds" />
          </mxGeometry>
        </mxCell>
        <mxCell id="q2cx1sVJ8lztpaXrzPLX-98" value="itemno" style="shape=partialRectangle;connectable=0;fillColor=none;top=0;left=0;bottom=0;right=0;align=left;spacingLeft=6;fontStyle=5;overflow=hidden;html=1;whiteSpace=wrap;" vertex="1" parent="q2cx1sVJ8lztpaXrzPLX-96">
          <mxGeometry x="60" width="120" height="30" as="geometry">
            <mxRectangle width="120" height="30" as="alternateBounds" />
          </mxGeometry>
        </mxCell>
        <mxCell id="q2cx1sVJ8lztpaXrzPLX-99" value="" style="shape=tableRow;horizontal=0;startSize=0;swimlaneHead=0;swimlaneBody=0;fillColor=none;collapsible=0;dropTarget=0;points=[[0,0.5],[1,0.5]];portConstraint=eastwest;top=0;left=0;right=0;bottom=1;html=1;" vertex="1" parent="q2cx1sVJ8lztpaXrzPLX-95">
          <mxGeometry y="60" width="180" height="30" as="geometry" />
        </mxCell>
        <mxCell id="q2cx1sVJ8lztpaXrzPLX-100" value="PK,FK2" style="shape=partialRectangle;connectable=0;fillColor=none;top=0;left=0;bottom=0;right=0;fontStyle=1;overflow=hidden;html=1;whiteSpace=wrap;" vertex="1" parent="q2cx1sVJ8lztpaXrzPLX-99">
          <mxGeometry width="60" height="30" as="geometry">
            <mxRectangle width="60" height="30" as="alternateBounds" />
          </mxGeometry>
        </mxCell>
        <mxCell id="q2cx1sVJ8lztpaXrzPLX-101" value="clientno" style="shape=partialRectangle;connectable=0;fillColor=none;top=0;left=0;bottom=0;right=0;align=left;spacingLeft=6;fontStyle=5;overflow=hidden;html=1;whiteSpace=wrap;" vertex="1" parent="q2cx1sVJ8lztpaXrzPLX-99">
          <mxGeometry x="60" width="120" height="30" as="geometry">
            <mxRectangle width="120" height="30" as="alternateBounds" />
          </mxGeometry>
        </mxCell>
        <mxCell id="q2cx1sVJ8lztpaXrzPLX-102" value="" style="shape=tableRow;horizontal=0;startSize=0;swimlaneHead=0;swimlaneBody=0;fillColor=none;collapsible=0;dropTarget=0;points=[[0,0.5],[1,0.5]];portConstraint=eastwest;top=0;left=0;right=0;bottom=0;html=1;" vertex="1" parent="q2cx1sVJ8lztpaXrzPLX-95">
          <mxGeometry y="90" width="180" height="30" as="geometry" />
        </mxCell>
        <mxCell id="q2cx1sVJ8lztpaXrzPLX-103" value="" style="shape=partialRectangle;connectable=0;fillColor=none;top=0;left=0;bottom=0;right=0;editable=1;overflow=hidden;html=1;whiteSpace=wrap;" vertex="1" parent="q2cx1sVJ8lztpaXrzPLX-102">
          <mxGeometry width="60" height="30" as="geometry">
            <mxRectangle width="60" height="30" as="alternateBounds" />
          </mxGeometry>
        </mxCell>
        <mxCell id="q2cx1sVJ8lztpaXrzPLX-104" value="cost" style="shape=partialRectangle;connectable=0;fillColor=none;top=0;left=0;bottom=0;right=0;align=left;spacingLeft=6;overflow=hidden;html=1;whiteSpace=wrap;" vertex="1" parent="q2cx1sVJ8lztpaXrzPLX-102">
          <mxGeometry x="60" width="120" height="30" as="geometry">
            <mxRectangle width="120" height="30" as="alternateBounds" />
          </mxGeometry>
        </mxCell>
        <mxCell id="q2cx1sVJ8lztpaXrzPLX-105" value="" style="shape=tableRow;horizontal=0;startSize=0;swimlaneHead=0;swimlaneBody=0;fillColor=none;collapsible=0;dropTarget=0;points=[[0,0.5],[1,0.5]];portConstraint=eastwest;top=0;left=0;right=0;bottom=0;html=1;" vertex="1" parent="q2cx1sVJ8lztpaXrzPLX-95">
          <mxGeometry y="120" width="180" height="30" as="geometry" />
        </mxCell>
        <mxCell id="q2cx1sVJ8lztpaXrzPLX-106" value="" style="shape=partialRectangle;connectable=0;fillColor=none;top=0;left=0;bottom=0;right=0;editable=1;overflow=hidden;html=1;whiteSpace=wrap;" vertex="1" parent="q2cx1sVJ8lztpaXrzPLX-105">
          <mxGeometry width="60" height="30" as="geometry">
            <mxRectangle width="60" height="30" as="alternateBounds" />
          </mxGeometry>
        </mxCell>
        <mxCell id="q2cx1sVJ8lztpaXrzPLX-107" value="date&lt;div&gt;condition&lt;/div&gt;" style="shape=partialRectangle;connectable=0;fillColor=none;top=0;left=0;bottom=0;right=0;align=left;spacingLeft=6;overflow=hidden;html=1;whiteSpace=wrap;" vertex="1" parent="q2cx1sVJ8lztpaXrzPLX-105">
          <mxGeometry x="60" width="120" height="30" as="geometry">
            <mxRectangle width="120" height="30" as="alternateBounds" />
          </mxGeometry>
        </mxCell>
        <mxCell id="q2cx1sVJ8lztpaXrzPLX-135" value="" style="edgeStyle=entityRelationEdgeStyle;fontSize=12;html=1;endArrow=ERoneToMany;startArrow=ERmandOne;rounded=0;exitX=1;exitY=0.5;exitDx=0;exitDy=0;entryX=0;entryY=0.124;entryDx=0;entryDy=0;entryPerimeter=0;" edge="1" parent="1" source="q2cx1sVJ8lztpaXrzPLX-4" target="q2cx1sVJ8lztpaXrzPLX-82">
          <mxGeometry width="100" height="100" relative="1" as="geometry">
            <mxPoint x="180" y="345" as="sourcePoint" />
            <mxPoint x="280" y="245" as="targetPoint" />
          </mxGeometry>
        </mxCell>
        <mxCell id="q2cx1sVJ8lztpaXrzPLX-136" value="" style="edgeStyle=entityRelationEdgeStyle;fontSize=12;html=1;endArrow=ERoneToMany;rounded=0;exitX=1.002;exitY=-0.038;exitDx=0;exitDy=0;exitPerimeter=0;entryX=0;entryY=0.143;entryDx=0;entryDy=0;entryPerimeter=0;" edge="1" parent="1" source="q2cx1sVJ8lztpaXrzPLX-86" target="q2cx1sVJ8lztpaXrzPLX-67">
          <mxGeometry width="100" height="100" relative="1" as="geometry">
            <mxPoint x="500" y="320" as="sourcePoint" />
            <mxPoint x="600" y="220" as="targetPoint" />
          </mxGeometry>
        </mxCell>
        <mxCell id="q2cx1sVJ8lztpaXrzPLX-137" value="" style="edgeStyle=entityRelationEdgeStyle;fontSize=12;html=1;endArrow=ERmany;rounded=0;exitX=-0.009;exitY=0.66;exitDx=0;exitDy=0;entryX=1.004;entryY=0.131;entryDx=0;entryDy=0;entryPerimeter=0;exitPerimeter=0;" edge="1" parent="1" source="q2cx1sVJ8lztpaXrzPLX-68" target="q2cx1sVJ8lztpaXrzPLX-95">
          <mxGeometry width="100" height="100" relative="1" as="geometry">
            <mxPoint x="530" y="400" as="sourcePoint" />
            <mxPoint x="530" y="415" as="targetPoint" />
          </mxGeometry>
        </mxCell>
        <mxCell id="q2cx1sVJ8lztpaXrzPLX-139" value="" style="edgeStyle=entityRelationEdgeStyle;fontSize=12;html=1;endArrow=ERoneToMany;rounded=0;entryX=1.013;entryY=0.14;entryDx=0;entryDy=0;entryPerimeter=0;exitX=0.006;exitY=0.159;exitDx=0;exitDy=0;exitPerimeter=0;" edge="1" parent="1" source="q2cx1sVJ8lztpaXrzPLX-95" target="q2cx1sVJ8lztpaXrzPLX-10">
          <mxGeometry width="100" height="100" relative="1" as="geometry">
            <mxPoint x="190" y="480" as="sourcePoint" />
            <mxPoint x="290" y="380" as="targetPoint" />
          </mxGeometry>
        </mxCell>
      </root>
    </mxGraphModel>
  </diagram>
</mxfile>
